<?xml version="1.0" encoding="UTF-8"?><svg id="Layer_1" xmlns="http://www.w3.org/2000/svg" xmlns:xlink="http://www.w3.org/1999/xlink" viewBox="0 0 16 16"><defs><style>.cls-1{filter:url(#drop-shadow-1);}.cls-2{fill:url(#New_Gradient_Swatch_1);}.cls-3{fill:url(#New_Gradient_Swatch_1-2);}.cls-4{fill:url(#New_Gradient_Swatch_1-3);}.cls-5{fill:url(#New_Gradient_Swatch_1-4);}</style><filter id="drop-shadow-1" filterUnits="userSpaceOnUse"><feOffset dx="7" dy="7"/><feGaussianBlur result="blur" stdDeviation="5"/><feFlood flood-color="#000" flood-opacity=".3"/><feComposite in2="blur" operator="in"/><feComposite in="SourceGraphic"/></filter><linearGradient id="New_Gradient_Swatch_1" x1="1.63" y1="3.64" x2="12.63" y2="3.64" gradientTransform="matrix(1, 0, 0, 1, 0, 0)" gradientUnits="userSpaceOnUse"><stop offset=".1" stop-color="#0571b7"/><stop offset=".28" stop-color="#007db0"/><stop offset=".31" stop-color="#0182ac"/><stop offset=".41" stop-color="#048ea4"/><stop offset=".51" stop-color="#0592a2"/><stop offset=".65" stop-color="#07999d"/><stop offset=".9" stop-color="#0ba498"/></linearGradient><linearGradient id="New_Gradient_Swatch_1-2" x1="7.26" x2="12.04" xlink:href="#New_Gradient_Swatch_1"/><linearGradient id="New_Gradient_Swatch_1-3" x1="1.07" y1="12.13" x2="11.56" y2="12.13" xlink:href="#New_Gradient_Swatch_1"/><linearGradient id="New_Gradient_Swatch_1-4" x1="3.24" y1="12.03" x2="14.24" y2="12.03" xlink:href="#New_Gradient_Swatch_1"/></defs><g class="cls-1"><g><path class="cls-2" d="M7.69,2c-.22-.44-.52-.79-.89-1.05-.37-.26-.78-.45-1.26-.56-.47-.11-.94-.17-1.43-.17H1.63V7.07h2.56c.47,0,.93-.06,1.39-.2,.46-.13,.87-.33,1.24-.62,.36-.28,.66-.63,.88-1.07,.22-.44,.33-.95,.33-1.55,0-.65-.11-1.19-.34-1.63Zm-1.57,2.59c-.13,.25-.29,.46-.5,.61-.21,.16-.45,.27-.73,.34-.27,.07-.56,.1-.86,.1h-.78V1.63h.82c.29,0,.56,.04,.83,.1,.27,.06,.51,.17,.72,.32,.21,.16,.37,.36,.5,.61,.13,.26,.19,.58,.19,.97s-.06,.7-.19,.96Z"/><polygon class="cls-3" points="13.91 5.66 13.91 7.07 9.13 7.07 9.13 .22 13.73 .22 13.73 1.61 10.72 1.61 10.72 2.91 13.57 2.91 13.57 4.24 10.72 4.24 10.72 5.66 13.91 5.66"/><path class="cls-4" d="M7.44,8.61v4.27c0,.41-.07,.79-.21,1.12-.14,.34-.33,.63-.59,.88-.26,.24-.57,.43-.94,.56-.36,.14-.77,.21-1.21,.21s-.86-.07-1.22-.21c-.36-.13-.67-.32-.92-.56-.25-.25-.44-.54-.58-.88-.14-.33-.2-.71-.2-1.12v-4.27h1.64v4.13c0,.19,.03,.37,.07,.53,.05,.17,.13,.32,.23,.45,.1,.14,.23,.24,.39,.32,.17,.08,.37,.11,.6,.11s.43-.03,.59-.11c.17-.08,.3-.18,.41-.32,.1-.13,.17-.28,.22-.45,.04-.16,.07-.34,.07-.53v-4.13h1.65Z"/><polygon class="cls-5" points="14.95 15.46 12.91 15.46 11.41 13.04 9.97 15.46 7.99 15.46 10.39 11.84 8.19 8.61 10.18 8.61 11.46 10.74 12.72 8.61 14.64 8.61 12.47 11.84 14.95 15.46"/></g></g></svg>