<svg width="50" height="50" viewBox="0 0 50 50" fill="none" xmlns="http://www.w3.org/2000/svg">
<path fill-rule="evenodd" clip-rule="evenodd" d="M25 50C38.8071 50 50 38.8071 50 25C50 11.1929 38.8071 0 25 0C11.1929 0 0 11.1929 0 25C0 38.8071 11.1929 50 25 50Z" fill="#D2D2D8"/>
<path d="M22.2395 38.9664C22.2395 38.8992 22.2395 38.832 22.2395 38.7647C22.2395 34.6309 22.2395 30.4971 22.2395 26.3632C22.2395 26.3296 22.2395 26.2624 22.2395 26.1952C22.1733 26.1952 22.107 26.1952 22.0739 26.1952C20.7822 26.1952 19.4905 26.1952 18.1656 26.1952C18 26.1952 18 26.1952 18 26.0272C18 24.4812 18 22.9352 18 21.3892C18 21.2548 18.0331 21.2212 18.1656 21.2212C19.4573 21.2212 20.7491 21.2212 22.0739 21.2212C22.1401 21.2212 22.1733 21.2212 22.2395 21.2212C22.2395 21.1539 22.2395 21.1203 22.2395 21.0867C22.2395 19.8096 22.2395 18.4989 22.2395 17.2218C22.2395 16.1799 22.4382 15.1716 22.9019 14.2306C23.4981 12.9535 24.4586 12.0461 25.7504 11.5083C26.6115 11.1386 27.5058 10.9706 28.4332 11.0042C29.493 11.0042 30.5529 11.0714 31.6128 11.105C31.8115 11.105 32.0103 11.1386 32.209 11.1722C32.3083 11.1722 32.3415 11.2059 32.3415 11.3403C32.3415 11.9788 32.3415 12.6174 32.3415 13.256C32.3415 13.9953 32.3415 14.7683 32.3415 15.5077C32.3415 15.6422 32.3083 15.6758 32.1759 15.6758C31.381 15.6758 30.5529 15.6758 29.758 15.6758C29.3937 15.6758 29.0293 15.7094 28.665 15.8102C27.9695 15.9782 27.572 16.4152 27.4395 17.1209C27.3733 17.3898 27.3402 17.6923 27.3402 17.9611C27.3402 19.003 27.3402 20.0449 27.3402 21.1203C27.3402 21.1539 27.3402 21.1875 27.3402 21.2212C27.4064 21.2212 27.4727 21.2212 27.5058 21.2212C28.9962 21.2212 30.4867 21.2212 31.9771 21.2212C32.1759 21.2212 32.1759 21.2212 32.1427 21.4228C32.0434 22.263 31.944 23.0696 31.8115 23.9098C31.7122 24.582 31.6459 25.2878 31.5466 25.9599C31.5134 26.2288 31.5134 26.2288 31.2485 26.2288C29.9899 26.2288 28.7313 26.2288 27.4727 26.2288C27.4064 26.2288 27.3733 26.2288 27.307 26.2288C27.307 26.296 27.307 26.3632 27.307 26.4305C27.307 30.5307 27.307 34.5973 27.307 38.6975C27.307 38.7983 27.307 38.8992 27.307 39C25.651 38.9664 23.9618 38.9664 22.2395 38.9664Z" fill="white"/>
</svg>
