<svg width="50" height="50" viewBox="0 0 50 50" fill="none" xmlns="http://www.w3.org/2000/svg">
<path fill-rule="evenodd" clip-rule="evenodd" d="M25 50C38.8071 50 50 38.8071 50 25C50 11.1929 38.8071 0 25 0C11.1929 0 0 11.1929 0 25C0 38.8071 11.1929 50 25 50Z" fill="#D2D2D8"/>
<path fill-rule="evenodd" clip-rule="evenodd" d="M37.4845 12.5155C38.3192 13.3501 38.8292 14.1847 39.2117 15.17C39.5827 16.1206 39.8377 17.2102 39.9073 18.8099C39.9884 20.4096 40 20.9196 40 25C40 29.0574 39.9771 29.5845 39.9084 31.1631L39.9073 31.1901C39.8377 32.7782 39.5827 33.8794 39.2117 34.83C38.8292 35.8153 38.3192 36.6499 37.4845 37.4845C36.6499 38.3192 35.8153 38.8292 34.83 39.2117C33.8794 39.5827 32.7898 39.8377 31.1901 39.9073C29.5904 39.9884 29.0804 40 25 40C20.9426 40 20.4154 39.9771 18.8369 39.9084L18.8099 39.9073C17.2218 39.8377 16.1206 39.5827 15.17 39.2117C14.1847 38.8292 13.3501 38.3192 12.5155 37.4845C11.6808 36.6499 11.1708 35.8153 10.7883 34.83C10.4173 33.8794 10.1623 32.7898 10.0927 31.1901C10.0116 29.5904 10 29.0804 10 25C10 20.9426 10.0229 20.4154 10.0916 18.8369L10.0927 18.8099C10.1623 17.2218 10.4173 16.1206 10.7883 15.17C11.1708 14.1847 11.6808 13.3501 12.5155 12.5155C13.3501 11.6808 14.1847 11.1708 15.17 10.7883C16.1206 10.4173 17.2102 10.1623 18.8099 10.0927C20.4096 10.0116 20.9196 10 25 10C29.0574 10 29.5845 10.0229 31.1631 10.0916L31.1901 10.0927C32.7782 10.1623 33.8794 10.4173 34.83 10.7883C35.8153 11.1708 36.6499 11.6808 37.4845 12.5155ZM36.6847 33.8447C36.8934 33.323 37.1368 32.5232 37.2063 31.0626L37.2083 31.0178C37.2763 29.4765 37.2991 28.9611 37.2991 25C37.2991 21.0539 37.2765 20.5388 37.2091 19.0001L37.2063 18.9374C37.1368 17.4768 36.8934 16.6886 36.6847 16.1553C36.4065 15.4482 36.0819 14.9498 35.5603 14.4281C35.0386 13.9065 34.5286 13.5703 33.8331 13.3037C33.3114 13.0951 32.5116 12.8516 31.051 12.7821C29.4745 12.7009 28.9876 12.6893 24.9884 12.6893C21.0423 12.6893 20.5272 12.7119 18.9885 12.7793L18.9258 12.7821C17.4652 12.8516 16.677 13.0951 16.1437 13.3037C15.4366 13.5819 14.9382 13.9065 14.4165 14.4281C13.8949 14.9498 13.5587 15.4598 13.2921 16.1553C13.0835 16.677 12.84 17.4768 12.7705 18.9374C12.6893 20.5139 12.6777 21.0008 12.6777 25C12.6777 28.9461 12.7003 29.4612 12.7677 30.9999L12.7705 31.0626C12.84 32.5232 13.0835 33.3114 13.2921 33.8447C13.5703 34.5518 13.8949 35.0502 14.4165 35.5719C14.9382 36.0935 15.4482 36.4297 16.1437 36.6963C16.6654 36.9049 17.4652 37.1484 18.9258 37.2179C20.5023 37.2991 20.9776 37.3107 24.9884 37.3107C28.9349 37.3107 29.4471 37.2882 30.9755 37.2212L31.051 37.2179C32.5116 37.1484 33.2998 36.9049 33.8331 36.6963C34.5402 36.4181 35.0386 36.0935 35.5603 35.5719C36.0819 35.0502 36.4181 34.5402 36.6847 33.8447Z" fill="white"/>
<path fill-rule="evenodd" clip-rule="evenodd" d="M17.5 25C17.5 20.8609 20.8609 17.5 25 17.5C29.1391 17.5 32.5 20.8609 32.5 25C32.5 29.1391 29.1391 32.5 25 32.5C20.8609 32.5 17.5 29.1391 17.5 25ZM20.1278 25C20.1278 27.6955 22.3158 29.8722 25 29.8722C27.6842 29.8722 29.8722 27.6842 29.8722 25C29.8722 22.3045 27.6955 20.1278 25 20.1278C22.3045 20.1278 20.1278 22.3158 20.1278 25Z" fill="white"/>
<path d="M32.5 20C33.8807 20 35 18.8807 35 17.5C35 16.1193 33.8807 15 32.5 15C31.1193 15 30 16.1193 30 17.5C30 18.8807 31.1193 20 32.5 20Z" fill="white"/>
</svg>
