<?xml version="1.0" encoding="utf-8"?>
<!-- Generator: Adobe Illustrator 26.3.1, SVG Export Plug-In . SVG Version: 6.00 Build 0)  -->
<svg version="1.1" id="Layer_1" xmlns="http://www.w3.org/2000/svg" xmlns:xlink="http://www.w3.org/1999/xlink" x="0px" y="0px"
	 viewBox="0 0 311.5 345.2" style="enable-background:new 0 0 311.5 345.2;" xml:space="preserve">
<style type="text/css">
	.st0{fill:#FFFFFF;}
</style>
<g>
	<g>
		<g>
			<g>
				<path class="st0" d="M148.4,88.7c0,12.6-2.3,23.5-7,32.6c-4.7,9.1-10.8,16.7-18.5,22.5c-7.7,5.9-16.3,10.2-25.9,13
					c-9.6,2.8-19.4,4.2-29.2,4.2H14.1V17.2h52c10.2,0,20.2,1.2,30.1,3.6c9.9,2.4,18.7,6.3,26.4,11.8c7.7,5.5,13.9,12.8,18.7,22
					C146,63.8,148.4,75.2,148.4,88.7z M112.2,88.7c0-8.1-1.3-14.9-4-20.2c-2.6-5.3-6.2-9.6-10.6-12.8c-4.4-3.2-9.4-5.4-15-6.8
					c-5.6-1.4-11.4-2-17.4-2H48V131h16.5c6.2,0,12.2-0.7,18-2.1c5.8-1.4,10.8-3.8,15.2-7c4.4-3.2,7.9-7.6,10.6-13
					C110.9,103.4,112.2,96.7,112.2,88.7z"/>
				<path class="st0" d="M171.3,161V17.2H268v29.2h-63.2v27.2h59.7v27.8h-59.7v29.9h66.8V161H171.3z"/>
				<path class="st0" d="M131.6,306.5c-2.9,7.1-7.1,13.2-12.5,18.3c-5.4,5.1-12,9-19.6,11.9c-7.7,2.8-16.1,4.3-25.5,4.3
					c-9.5,0-18-1.4-25.6-4.3c-7.6-2.8-14-6.8-19.3-11.9c-5.3-5.1-9.3-11.2-12.2-18.3c-2.8-7.1-4.3-15-4.3-23.7v-89.6h34.5V280
					c0,3.9,0.5,7.7,1.5,11.2c1,3.5,2.6,6.7,4.7,9.4c2.1,2.8,4.9,5,8.3,6.6c3.5,1.6,7.6,2.4,12.5,2.4s9-0.8,12.5-2.4
					c3.5-1.6,6.3-3.8,8.4-6.6c2.2-2.8,3.7-5.9,4.7-9.4c0.9-3.5,1.4-7.2,1.4-11.2v-86.7H136v89.6C136,291.5,134.5,299.4,131.6,306.5z
					"/>
				<path class="st0" d="M250.7,337.1l-31.5-50.8L189,337.1h-41.4l50.4-76l-46.3-67.8h41.8l26.8,44.7l26.4-44.7h40.4l-45.5,67.8
					l52,76H250.7z"/>
			</g>
		</g>
	</g>
</g>
<g>
	<path class="st0" d="M288,8.6h4c0.5,0,1.1,0.1,1.6,0.2c0.5,0.1,1,0.3,1.3,0.6c0.4,0.3,0.7,0.6,0.9,1c0.2,0.4,0.4,0.9,0.4,1.5
		c0,0.8-0.2,1.5-0.7,2c-0.5,0.5-1.1,0.9-1.9,1.1l3,5h-2.4l-2.6-4.8h-1.5V20h-2V8.6z M291.7,13.5c0.3,0,0.6,0,0.9-0.1
		c0.3,0,0.5-0.1,0.8-0.2c0.2-0.1,0.4-0.3,0.6-0.5c0.1-0.2,0.2-0.5,0.2-0.8c0-0.3-0.1-0.6-0.2-0.8c-0.1-0.2-0.3-0.4-0.5-0.5
		c-0.2-0.1-0.5-0.2-0.7-0.2c-0.3,0-0.5-0.1-0.8-0.1h-1.8v3.2H291.7z"/>
	<g>
		<path class="st0" d="M292.3,25c-5.9,0-10.8-4.8-10.8-10.8s4.8-10.8,10.8-10.8s10.8,4.8,10.8,10.8S298.3,25,292.3,25z M292.3,4.2
			c-5.5,0-10,4.5-10,10s4.5,10,10,10s10-4.5,10-10S297.9,4.2,292.3,4.2z"/>
	</g>
</g>
</svg>
