<?xml version="1.0" encoding="utf-8"?>
<!-- Generator: Adobe Illustrator 26.3.1, SVG Export Plug-In . SVG Version: 6.00 Build 0)  -->
<svg version="1.1" id="Layer_1" xmlns="http://www.w3.org/2000/svg" xmlns:xlink="http://www.w3.org/1999/xlink" x="0px" y="0px"
	 viewBox="0 0 49 49" style="enable-background:new 0 0 49 49;" xml:space="preserve">
<style type="text/css">
	.st0{fill:#D2D2D8;}
</style>
<path class="st0" d="M24.5,0c-4.8,0-9.6,1.4-13.6,4.1c-4,2.7-7.2,6.5-9,11C0,19.6-0.5,24.5,0.5,29.3s3.3,9.1,6.7,12.5
	c3.4,3.4,7.8,5.8,12.5,6.7c4.8,0.9,9.7,0.5,14.2-1.4c4.5-1.9,8.3-5,11-9c2.7-4,4.1-8.8,4.1-13.6c0-6.5-2.6-12.7-7.2-17.3
	C37.2,2.6,31,0,24.5,0z M36.8,18.7v3.3c-2.6,0-5.1-0.8-7.1-2.4v10.2c0,1.1-0.2,2.3-0.7,3.3c-0.4,1-1.1,2-1.9,2.8
	c-1.3,1.3-3,2.2-4.9,2.4c-0.4,0.1-0.9,0.1-1.3,0.1c-1.9,0-3.8-0.6-5.4-1.8c-0.3-0.2-0.5-0.5-0.8-0.7c-1.6-1.5-2.5-3.6-2.6-5.8
	c-0.1-2.2,0.7-4.4,2.2-6c1-1.1,2.2-1.9,3.6-2.4c1.4-0.5,2.9-0.6,4.3-0.4v4.6c-1-0.3-2-0.3-3,0.1c-0.9,0.4-1.7,1.1-2.1,2.1
	c-0.4,0.9-0.5,2-0.2,2.9c0.3,1,1,1.8,1.8,2.3c0.6,0.3,1.2,0.5,1.9,0.6c0.6,0,1.1,0,1.7-0.2c0.5-0.2,1-0.5,1.4-0.9
	c0.4-0.4,0.7-0.9,1-1.4c0.2-0.5,0.3-1.1,0.3-1.6V10.5h4.5c0,0.4,0.1,0.9,0.1,1.3c0.3,1.6,1.2,3,2.5,4.1c1.3,1,2.9,1.6,4.5,1.6
	L36.8,18.7L36.8,18.7z"/>
</svg>
