<svg width="50" height="50" viewBox="0 0 50 50" fill="none" xmlns="http://www.w3.org/2000/svg">
<path d="M21.8843 29.6875L30.019 25L21.8843 20.3125V29.6875Z" fill="#D2D2D8"/>
<path d="M25 0C11.1914 0 0 11.1914 0 25C0 38.8086 11.1914 50 25 50C38.8086 50 50 38.8086 50 25C50 11.1914 38.8086 0 25 0ZM40.625 25.0293C40.625 25.0293 40.625 30.0977 39.9805 32.5488C39.6191 33.8867 38.5645 34.9414 37.2266 35.3027C34.7754 35.9375 25 35.9375 25 35.9375C25 35.9375 15.2441 35.9375 12.7734 35.2637C11.4355 34.9023 10.3809 33.8477 10.0195 32.5098C9.375 30.0977 9.375 25 9.375 25C9.375 25 9.375 19.9316 10.0195 17.4902C10.3809 16.1523 11.4648 15.0684 12.7734 14.707C15.2246 14.0625 25 14.0625 25 14.0625C25 14.0625 34.7754 14.0625 37.2266 14.7363C38.5645 15.0977 39.6191 16.1523 39.9805 17.4902C40.6445 19.9316 40.625 25.0293 40.625 25.0293Z" fill="#D2D2D8"/>
</svg>
