<?xml version="1.0" encoding="utf-8"?>
<!-- Generator: Adobe Illustrator 26.3.1, SVG Export Plug-In . SVG Version: 6.00 Build 0)  -->
<svg version="1.1" id="Layer_1" xmlns="http://www.w3.org/2000/svg" xmlns:xlink="http://www.w3.org/1999/xlink" x="0px" y="0px"
	 viewBox="0 0 260 99" style="enable-background:new 0 0 260 99;" xml:space="preserve">
<style type="text/css">
	.st0{clip-path:url(#SVGID_00000162310913107327323350000017985385642720303267_);}
	.st1{fill:#2F2F2F;}
	.st2{fill:#47B2A3;}
</style>
<g>
	<defs>
		<rect id="SVGID_1_" width="260" height="99"/>
	</defs>
	<clipPath id="SVGID_00000004516139216648964220000000349309418512544179_">
		<use xlink:href="#SVGID_1_"  style="overflow:visible;"/>
	</clipPath>
	<g style="clip-path:url(#SVGID_00000004516139216648964220000000349309418512544179_);">
		<path class="st1" d="M60.2,37.1c0,5.4-1,10-3,14c-1.9,3.8-4.6,7.1-7.9,9.7c-3.3,2.5-7.1,4.4-11.1,5.6c-4.1,1.2-8.3,1.8-12.6,1.8
			h-23V6.5h22.3c4.3,0,8.7,0.5,12.9,1.5c4.1,0.9,7.9,2.7,11.3,5c3.3,2.4,6,5.5,8,9.4C59.2,26.4,60.2,31.3,60.2,37.1z M44.7,37.1
			c0-3.5-0.6-6.4-1.7-8.7c-1-2.2-2.6-4.1-4.5-5.5c-1.9-1.4-4.1-2.4-6.5-2.9c-2.4-0.6-4.9-0.9-7.5-0.9h-7.4v36h7.1
			c2.6,0,5.2-0.3,7.7-0.9c2.4-0.6,4.6-1.6,6.5-3c1.9-1.5,3.5-3.4,4.5-5.6C44.1,43.4,44.7,40.5,44.7,37.1z"/>
		<path class="st1" d="M72,68.1V6.5h41.5V19H86.4v11.7H112v11.9H86.4v12.8H115v12.7L72,68.1z"/>
		<path class="st2" d="M177.2,55c-1.2,3-3,5.6-5.4,7.8c-2.4,2.2-5.3,4-8.4,5.1c-3.5,1.3-7.2,1.9-10.9,1.8c-4.1,0-7.7-0.6-11-1.8
			c-3.1-1.1-5.9-2.8-8.3-5.1c-2.3-2.2-4.1-4.9-5.2-7.8c-1.3-3.2-1.9-6.7-1.8-10.1V6.5H141v37.2c0,1.6,0.2,3.2,0.7,4.8
			c0.4,1.5,1.1,2.8,2,4c0.9,1.2,2.2,2.2,3.6,2.8c1.5,0.7,3.3,1,5.4,1c2.1,0,3.9-0.4,5.4-1c1.4-0.6,2.7-1.6,3.6-2.8
			c0.9-1.2,1.6-2.6,2-4c0.4-1.6,0.6-3.2,0.6-4.8V6.5h14.9v38.4C179.1,48.3,178.5,51.8,177.2,55z"/>
		<path class="st2" d="M230.3,68.1l-13.5-21.8l-13,21.8H186l21.6-32.5L187.7,6.5h18l11.5,19.1l11.3-19.1h17.3l-19.5,29.1l22.3,32.5
			H230.3z"/>
		<path class="st1" d="M3.4,87.4h3.2c0.6,0,1.2,0.1,1.8,0.2c0.6,0.1,1.1,0.4,1.6,0.7c0.5,0.4,0.9,0.8,1.2,1.4
			c0.3,0.7,0.5,1.4,0.4,2.1c0,0.7-0.1,1.4-0.4,2c-0.3,0.5-0.7,1-1.2,1.4c-0.5,0.4-1,0.6-1.6,0.8c-0.6,0.2-1.2,0.3-1.8,0.3H3.4V87.4z
			 M6.3,95c0.4,0,0.8,0,1.2-0.1c0.4-0.1,0.8-0.3,1.1-0.5c0.3-0.2,0.6-0.6,0.8-0.9c0.2-0.5,0.3-1,0.3-1.5c0-0.5-0.1-1.1-0.3-1.6
			c-0.2-0.4-0.5-0.7-0.8-0.9c-0.3-0.2-0.7-0.4-1.1-0.5c-0.4-0.1-0.8-0.1-1.2-0.1H5V95H6.3z"/>
		<path class="st1" d="M17.8,87.4h1.6v8.9h-1.6V87.4z"/>
		<path class="st1" d="M30.6,89.3c-0.2-0.2-0.4-0.4-0.7-0.5c-0.3-0.1-0.6-0.2-0.9-0.2c-0.2,0-0.4,0-0.6,0.1c-0.2,0-0.4,0.1-0.5,0.2
			c-0.2,0.1-0.3,0.2-0.4,0.4c-0.1,0.2-0.2,0.4-0.1,0.6c0,0.2,0,0.4,0.1,0.5c0.1,0.1,0.2,0.3,0.3,0.4c0.2,0.1,0.3,0.2,0.5,0.3
			c0.2,0.1,0.4,0.1,0.7,0.2c0.3,0.1,0.6,0.2,0.9,0.3c0.3,0.1,0.6,0.3,0.8,0.5c0.3,0.2,0.5,0.4,0.6,0.7c0.2,0.3,0.3,0.7,0.2,1.1
			c0,0.4-0.1,0.9-0.3,1.3c-0.2,0.3-0.4,0.7-0.7,0.9c-0.3,0.2-0.7,0.4-1,0.5c-0.4,0.1-0.8,0.2-1.3,0.2c-0.6,0-1.2-0.1-1.7-0.3
			c-0.5-0.2-1-0.5-1.4-1l1.1-1.1c0.2,0.3,0.5,0.6,0.9,0.7c0.5,0.3,1.1,0.3,1.7,0.2c0.2,0,0.4-0.1,0.5-0.2c0.2-0.1,0.3-0.2,0.4-0.4
			c0.1-0.2,0.2-0.4,0.1-0.6c0-0.2-0.1-0.4-0.2-0.6c-0.1-0.2-0.3-0.3-0.4-0.4c-0.2-0.1-0.4-0.2-0.7-0.3l-0.8-0.3
			c-0.3-0.1-0.5-0.2-0.8-0.3c-0.3-0.1-0.5-0.3-0.7-0.5c-0.2-0.2-0.4-0.4-0.5-0.7c-0.1-0.3-0.2-0.7-0.2-1.1c0-0.4,0.1-0.8,0.3-1.2
			c0.2-0.3,0.4-0.6,0.7-0.8c0.3-0.2,0.7-0.4,1-0.5c0.4-0.1,0.8-0.2,1.2-0.2c0.5,0,0.9,0.1,1.4,0.2c0.5,0.2,0.9,0.4,1.2,0.7
			L30.6,89.3z"/>
		<path class="st1" d="M38.1,87.4H44v1.4h-4.3v2.3h4.1v1.3h-4.1v2.5h4.6v1.4h-6.2V87.4z"/>
		<path class="st1" d="M50.5,87.4h2.1l4.2,6.7h0v-6.7h1.6v8.9h-2l-4.3-6.9h0v6.9h-1.6V87.4z M52.1,86.6c0-0.2,0.1-0.4,0.1-0.6
			c0.1-0.2,0.1-0.4,0.3-0.5c0.1-0.1,0.3-0.3,0.4-0.4c0.2-0.1,0.4-0.1,0.6-0.1c0.2,0,0.3,0,0.5,0.1c0.2,0,0.3,0.1,0.5,0.2
			c0.2,0.1,0.3,0.1,0.5,0.2c0.1,0,0.2,0.1,0.4,0.1c0.1,0,0.1,0,0.2,0c0.1,0,0.1-0.1,0.2-0.1c0.1-0.1,0.2-0.2,0.2-0.4h0.8
			c0,0.2-0.1,0.4-0.1,0.6c-0.1,0.2-0.1,0.4-0.3,0.5c-0.1,0.1-0.3,0.3-0.4,0.4c-0.2,0.1-0.4,0.1-0.6,0.1c-0.2,0-0.4,0-0.5-0.1
			c-0.2,0-0.3-0.1-0.5-0.2c-0.1-0.1-0.3-0.1-0.4-0.2c-0.1,0-0.2-0.1-0.4-0.1c-0.1,0-0.1,0-0.2,0c-0.1,0-0.1,0.1-0.2,0.1
			c-0.1,0.1-0.2,0.2-0.2,0.4H52.1z"/>
		<path class="st1" d="M64.7,91.9c0-0.7,0.1-1.3,0.4-1.9c0.2-0.6,0.6-1.1,1-1.5c0.4-0.4,1-0.7,1.5-0.9c0.6-0.2,1.3-0.3,1.9-0.3
			c0.7,0,1.3,0.1,1.9,0.3c0.6,0.2,1.1,0.5,1.5,0.9c0.4,0.4,0.8,0.9,1,1.5c0.5,1.2,0.5,2.6,0,3.9c-0.2,0.6-0.6,1.1-1,1.5
			c-0.4,0.4-1,0.8-1.5,1c-0.6,0.2-1.3,0.4-1.9,0.3c-0.7,0-1.3-0.1-1.9-0.3c-0.6-0.2-1.1-0.5-1.5-1c-0.4-0.4-0.8-0.9-1-1.5
			C64.8,93.2,64.7,92.5,64.7,91.9z M66.4,91.9c0,0.4,0.1,0.9,0.2,1.3c0.1,0.4,0.4,0.7,0.6,1c0.3,0.3,0.6,0.5,1,0.7
			c0.4,0.2,0.8,0.3,1.2,0.2c0.4,0,0.9-0.1,1.3-0.2c0.4-0.2,0.7-0.4,1-0.7c0.3-0.3,0.5-0.7,0.6-1c0.2-0.4,0.2-0.9,0.2-1.3
			c0-0.4-0.1-0.9-0.2-1.3c-0.1-0.4-0.4-0.7-0.6-1c-0.3-0.3-0.6-0.5-1-0.7c-0.4-0.2-0.8-0.3-1.3-0.3c-0.4,0-0.9,0.1-1.3,0.3
			c-0.4,0.2-0.7,0.4-1,0.7c-0.3,0.3-0.5,0.7-0.6,1C66.5,91,66.4,91.4,66.4,91.9z"/>
		<path class="st1" d="M88.5,87.4h3.2c0.6,0,1.2,0.1,1.8,0.2c0.6,0.1,1.1,0.4,1.6,0.7c0.5,0.4,0.9,0.8,1.2,1.4
			c0.3,0.7,0.5,1.4,0.4,2.1c0,0.7-0.1,1.4-0.4,2c-0.3,0.5-0.7,1-1.2,1.4c-0.5,0.4-1,0.6-1.6,0.8c-0.6,0.2-1.2,0.3-1.8,0.3h-3.2V87.4
			z M91.4,95c0.4,0,0.8,0,1.2-0.1c0.4-0.1,0.8-0.3,1.1-0.5c0.3-0.2,0.6-0.6,0.8-0.9c0.2-0.5,0.3-1,0.3-1.5c0-0.5-0.1-1.1-0.3-1.6
			c-0.2-0.4-0.5-0.7-0.8-0.9c-0.3-0.2-0.7-0.4-1.1-0.5c-0.4-0.1-0.8-0.1-1.2-0.1h-1.3V95H91.4z"/>
		<path class="st1" d="M102.8,87.4h5.9v1.4h-4.3v2.3h4.1v1.3h-4.1v2.5h4.6v1.4h-6.2V87.4z"/>
		<path class="st1" d="M123.2,87.4h5.9v1.4h-4.3v2.3h4.1v1.3h-4.1v2.5h4.6v1.4h-6.2V87.4z"/>
		<path class="st1" d="M137.8,91.6l-2.8-4.2h1.9l1.8,3l1.8-3h1.8l-2.7,4.2l3.2,4.7h-2l-2.2-3.5l-2.1,3.5h-1.9L137.8,91.6z"/>
		<path class="st1" d="M148.7,87.4h2.9c0.5,0,0.9,0,1.4,0.1c0.4,0.1,0.7,0.2,1.1,0.5c0.3,0.2,0.5,0.5,0.7,0.8
			c0.2,0.4,0.3,0.8,0.2,1.2c0,0.4-0.1,0.9-0.3,1.2c-0.2,0.3-0.4,0.6-0.8,0.8c-0.3,0.2-0.7,0.4-1.1,0.4c-0.4,0.1-0.9,0.1-1.3,0.1
			h-1.2v3.7h-1.6L148.7,87.4z M151.4,91.3c0.2,0,0.5,0,0.7-0.1c0.2,0,0.4-0.1,0.6-0.2c0.2-0.1,0.4-0.2,0.5-0.4
			c0.1-0.2,0.2-0.4,0.1-0.6c0-0.2,0-0.4-0.1-0.6c-0.1-0.2-0.3-0.3-0.5-0.4c-0.2-0.1-0.4-0.2-0.6-0.2c-0.2,0-0.5,0-0.7,0h-1.2v2.6
			H151.4z"/>
		<path class="st1" d="M161.1,87.4h5.9v1.4h-4.3v2.3h4.1v1.3h-4.1v2.5h4.6v1.4h-6.2V87.4z"/>
		<path class="st1" d="M173.6,87.4h3.1c0.4,0,0.8,0,1.2,0.1c0.4,0.1,0.7,0.2,1.1,0.4c0.3,0.2,0.6,0.5,0.7,0.8
			c0.2,0.4,0.3,0.8,0.3,1.2c0,0.6-0.2,1.1-0.5,1.6c-0.4,0.4-0.9,0.7-1.5,0.8l2.4,4h-1.9l-2.1-3.8h-1.2v3.8h-1.6L173.6,87.4z
			 M176.5,91.3c0.2,0,0.5,0,0.7-0.1c0.2,0,0.4-0.1,0.6-0.2c0.2-0.1,0.3-0.2,0.4-0.4c0.1-0.2,0.2-0.4,0.2-0.7c0-0.2,0-0.4-0.2-0.6
			c-0.1-0.2-0.3-0.3-0.4-0.4c-0.2-0.1-0.4-0.2-0.6-0.2c-0.2,0-0.4-0.1-0.6-0.1h-1.4v2.5L176.5,91.3z"/>
		<path class="st1" d="M186.3,87.4h1.6v8.9h-1.6V87.4z"/>
		<path class="st1" d="M194.5,87.4h5.9v1.4h-4.4v2.3h4.1v1.3h-4.1v2.5h4.6v1.4h-6.2V87.4z"/>
		<path class="st1" d="M207,87.4h2.1l4.2,6.7h0v-6.7h1.6v8.9h-2l-4.3-6.9h0v6.9H207V87.4z"/>
		<path class="st1" d="M228,89.5c-0.2-0.3-0.5-0.6-0.9-0.7c-0.4-0.2-0.8-0.2-1.2-0.2c-0.4,0-0.8,0.1-1.2,0.3c-0.4,0.2-0.7,0.4-1,0.7
			c-0.3,0.3-0.5,0.6-0.6,1c-0.2,0.4-0.2,0.8-0.2,1.3c0,0.5,0.1,0.9,0.2,1.3c0.1,0.4,0.3,0.7,0.6,1c0.3,0.3,0.6,0.5,1,0.7
			c0.4,0.2,0.8,0.2,1.3,0.2c0.4,0,0.9-0.1,1.3-0.3c0.4-0.2,0.7-0.4,0.9-0.7l1.3,0.9c-0.4,0.5-0.9,0.9-1.5,1.2
			c-0.6,0.3-1.3,0.4-2,0.4c-0.7,0-1.3-0.1-1.9-0.3c-0.6-0.2-1.1-0.5-1.5-1c-0.4-0.4-0.8-0.9-1-1.5c-0.2-0.6-0.4-1.3-0.4-1.9
			c0-0.7,0.1-1.3,0.4-1.9c0.2-0.6,0.6-1.1,1-1.5c0.4-0.4,1-0.7,1.5-0.9c0.6-0.2,1.3-0.3,1.9-0.3c0.3,0,0.6,0,0.9,0.1
			c0.3,0.1,0.6,0.1,0.9,0.3c0.3,0.1,0.6,0.3,0.8,0.4c0.2,0.2,0.5,0.4,0.6,0.6L228,89.5z"/>
		<path class="st1" d="M235.1,87.4h1.6v8.9h-1.6V87.4z"/>
		<path class="st1" d="M246.2,87.4h1.4l3.9,8.9h-1.8l-0.8-2h-3.9l-0.8,2h-1.8L246.2,87.4z M248.2,92.9l-1.4-3.6l-1.4,3.6H248.2z"/>
		<path class="st1" d="M253.6,3.5h1.7c0.2,0,0.4,0,0.7,0.1c0.2,0,0.4,0.1,0.6,0.2c0.2,0.1,0.3,0.3,0.4,0.4c0.1,0.2,0.2,0.4,0.1,0.6
			c0,0.3-0.1,0.6-0.3,0.9c-0.2,0.2-0.5,0.4-0.8,0.4l1.3,2.1h-1l-1.1-2h-0.6v2h-0.9V3.5z M255.2,5.5c0.1,0,0.2,0,0.4,0
			c0.1,0,0.2,0,0.3-0.1c0.1-0.1,0.2-0.1,0.2-0.2c0.1-0.1,0.1-0.2,0.1-0.4c0-0.1,0-0.2-0.1-0.3c-0.1-0.1-0.1-0.2-0.2-0.2
			c-0.1-0.1-0.2-0.1-0.3-0.1c-0.1,0-0.2,0-0.3,0h-0.8v1.4H255.2z"/>
		<path class="st1" d="M255.4,10.4c-0.9,0-1.8-0.3-2.5-0.8c-0.8-0.5-1.3-1.2-1.7-2.1c-0.3-0.8-0.4-1.8-0.3-2.6
			c0.2-0.9,0.6-1.7,1.3-2.3s1.5-1.1,2.3-1.3s1.8-0.1,2.6,0.3c0.8,0.3,1.6,0.9,2.1,1.7c0.5,0.8,0.8,1.6,0.8,2.5
			c0,1.2-0.5,2.4-1.3,3.2C257.8,10,256.6,10.4,255.4,10.4z M255.4,1.6c-0.8,0-1.7,0.3-2.4,0.7c-0.7,0.5-1.2,1.1-1.6,1.9
			c-0.3,0.8-0.4,1.6-0.2,2.5c0.2,0.8,0.6,1.6,1.2,2.2c0.6,0.6,1.4,1,2.2,1.2c0.8,0.2,1.7,0.1,2.5-0.2c0.8-0.3,1.4-0.9,1.9-1.6
			c0.5-0.7,0.7-1.5,0.7-2.4c0-1.1-0.5-2.2-1.3-3C257.6,2.1,256.6,1.6,255.4,1.6z"/>
	</g>
</g>
</svg>
